<svg width="6" height="8" viewBox="0 0 6 8" fill="none" xmlns="http://www.w3.org/2000/svg">
<path d="M5.98575 3.39277C5.9362 2.88451 5.75396 2.39756 5.45678 1.97933C5.1596 1.56111 4.75761 1.22586 4.28994 1.00624C3.82228 0.78662 3.30489 0.69011 2.78814 0.726108C2.2714 0.762106 1.77292 0.929386 1.34125 1.21166C0.970393 1.45608 0.659062 1.77843 0.429621 2.15555C0.200181 2.53267 0.058326 2.95519 0.0142474 3.39277C-0.0289923 3.82748 0.0264847 4.26623 0.176653 4.67718C0.326822 5.08814 0.567916 5.46099 0.882445 5.76869L2.75295 7.61585C2.78576 7.64846 2.8248 7.67434 2.8678 7.692C2.91081 7.70966 2.95694 7.71875 3.00353 7.71875C3.05012 7.71875 3.09625 7.70966 3.13926 7.692C3.18226 7.67434 3.2213 7.64846 3.25411 7.61585L5.11756 5.76869C5.43208 5.46099 5.67318 5.08814 5.82335 4.67718C5.97352 4.26623 6.02899 3.82748 5.98575 3.39277ZM4.62346 5.2782L3 6.87838L1.37654 5.2782C1.13729 5.04236 0.954019 4.75721 0.839906 4.44324C0.725793 4.12927 0.683672 3.79427 0.71657 3.46234C0.749681 3.1253 0.858363 2.79972 1.03476 2.50914C1.21115 2.21856 1.45085 1.97025 1.73653 1.78216C2.11096 1.53699 2.55048 1.40622 3 1.40622C3.44952 1.40622 3.88904 1.53699 4.26347 1.78216C4.54828 1.96952 4.78745 2.21674 4.96381 2.50604C5.14016 2.79535 5.24931 3.11956 5.28343 3.45539C5.3174 3.78844 5.27581 4.12477 5.16167 4.44004C5.04752 4.7553 4.86368 5.04159 4.62346 5.2782ZM3 2.13002C2.68589 2.13002 2.37883 2.22183 2.11766 2.39384C1.85649 2.56584 1.65293 2.81033 1.53273 3.09636C1.41252 3.3824 1.38107 3.69715 1.44235 4.00081C1.50363 4.30446 1.65489 4.58339 1.877 4.80231C2.09911 5.02124 2.38209 5.17033 2.69016 5.23073C2.99824 5.29113 3.31757 5.26013 3.60777 5.14165C3.89796 5.02317 4.146 4.82253 4.32051 4.5651C4.49502 4.30767 4.58817 4.00502 4.58817 3.69541C4.58723 3.28053 4.41961 2.8829 4.12197 2.58953C3.82434 2.29616 3.42092 2.13094 3 2.13002ZM3 4.56508C2.82549 4.56508 2.65491 4.51407 2.50981 4.41851C2.36472 4.32295 2.25163 4.18713 2.18485 4.02822C2.11807 3.86931 2.10059 3.69445 2.13464 3.52575C2.16868 3.35705 2.25272 3.20209 2.37611 3.08047C2.4995 2.95884 2.65672 2.87602 2.82787 2.84246C2.99902 2.8089 3.17643 2.82613 3.33765 2.89195C3.49887 2.95777 3.63667 3.06924 3.73362 3.21225C3.83057 3.35527 3.88231 3.52341 3.88231 3.69541C3.88231 3.92606 3.78936 4.14726 3.62389 4.31036C3.45842 4.47345 3.234 4.56508 3 4.56508Z" fill="#46D068"/>
</svg>
